<?xml version="1.0" encoding="utf-8"?>
<!-- Generator: Adobe Illustrator 23.0.2, SVG Export Plug-In . SVG Version: 6.00 Build 0)  -->
<svg version="1.1" id="Capa_1" xmlns="http://www.w3.org/2000/svg" xmlns:xlink="http://www.w3.org/1999/xlink" x="0px" y="0px"
	 viewBox="0 0 1920 900" style="enable-background:new 0 0 1920 900;" xml:space="preserve">
<style type="text/css">
	.st0{fill:#00313E;}
	.st1{fill:#0099FF;}
</style>
<g>
	<rect class="st0" width="1920" height="900"/>
</g>
<path class="st1" d="M0,708l17.73,26.7c17.87,26.3,52.93,80.3,88.93,64c35.6-15.7,70.67-101.7,106.67-101.4
	C248.93,697,284,783,320,814.7C355.6,847,390.67,825,426.67,804c35.6-21,70.67-43,106.67-69.3C568.93,708,604,676,640,654.7
	c35.6-21.7,70.67-31.7,106.67-21.4c35.6,10.7,70.67,42.7,106.67,69.4C888.93,729,924,751,960,740c35.6-11,70.67-53,106.67-69.3
	c35.6-15.7,70.67-5.7,106.67,37.3c35.6,43,70.67,117,106.67,149.3c35.6,31.7,70.67,21.7,106.67,0c35.6-21.3,70.67-53.3,106.67-96
	C1528.93,719,1564,665,1600,660c35.6-5,70.67,37,106.67,48c35.6,11,70.67-11,106.67,0c35.6,11,70.67,53,89.33,74.7L1920,804v96
	h-17.73c-17.87,0-52.93,0-88.93,0c-35.6,0-70.67,0-106.67,0c-35.6,0-70.67,0-106.67,0c-35.6,0-70.67,0-106.67,0
	c-35.6,0-70.67,0-106.67,0c-35.6,0-70.67,0-106.67,0c-35.6,0-70.67,0-106.67,0c-35.6,0-70.67,0-106.67,0c-35.6,0-70.67,0-106.67,0
	c-35.6,0-70.67,0-106.67,0c-35.6,0-70.67,0-106.67,0c-35.6,0-70.67,0-106.67,0c-35.6,0-70.67,0-106.67,0c-35.6,0-70.67,0-106.67,0
	c-35.6,0-70.67,0-106.67,0c-35.6,0-70.67,0-106.67,0c-35.6,0-70.67,0-106.67,0c-35.6,0-70.67,0-89.33,0H0V708z"/>
<path class="st1" d="M1798.04,549.48c-1.16,17.92-14.56,32.52-32.52,32.52S1733,567.44,1733,549.48
	c0-38.48,33.14-134.38,33.14-134.38S1801,504,1798.04,549.48z"/>
<path class="st1" d="M348.04,660.48C346.88,678.4,333.48,693,315.52,693c-17.96,0-32.52-14.56-32.52-32.52
	c0-38.48,33.14-134.38,33.14-134.38S351,615,348.04,660.48z"/>
<path class="st1" d="M556.13,583.93c-0.58,8.85-7.19,16.07-16.07,16.07S524,592.81,524,583.93c0-19.01,16.37-66.39,16.37-66.39
	S557.59,561.47,556.13,583.93z"/>
<path class="st1" d="M457.13,689.93c-0.58,8.85-7.19,16.07-16.07,16.07S425,698.81,425,689.93c0-19.01,16.37-66.39,16.37-66.39
	S458.59,667.47,457.13,689.93z"/>
<path class="st1" d="M343.94,459.53c-0.41,6.32-5.13,11.47-11.47,11.47S321,465.87,321,459.53c0-13.57,11.69-47.39,11.69-47.39
	S344.98,443.49,343.94,459.53z"/>
<path class="st1" d="M409.13,606.93c-0.58,8.85-7.19,16.07-16.07,16.07S377,615.81,377,606.93c0-19.01,16.37-66.39,16.37-66.39
	S410.59,584.47,409.13,606.93z"/>
<path class="st1" d="M476.12,562.71c-0.69,10.63-8.64,19.29-19.29,19.29c-10.65,0-19.29-8.64-19.29-19.29
	c0-22.82,19.65-79.71,19.65-79.71S477.87,535.73,476.12,562.71z"/>
<path class="st1" d="M1684.04,395.48c0.02,14.1-11.43,25.52-25.52,25.52S1633,409.57,1633,395.48c0-34.48,26-105.46,26-105.46
	S1684,361,1684.04,395.48z"/>
<path class="st1" d="M1572.04,473.48c-0.57,14.08-11.43,25.52-25.52,25.52S1521,487.57,1521,473.48c0-24.48,26-105.46,26-105.46
	S1573,450,1572.04,473.48z"/>
<path class="st1" d="M1633.03,598.06c0,5.49-4.45,9.94-9.94,9.94s-9.94-4.45-9.94-9.94s10.13-41.06,10.13-41.06
	S1633.03,592.57,1633.03,598.06z"/>
<path class="st1" d="M1751.21,257.97c0,7.75-6.28,14.03-14.03,14.03c-7.75,0-14.03-6.28-14.03-14.03s14.29-57.97,14.29-57.97
	S1751.21,250.22,1751.21,257.97z"/>
<path class="st1" d="M1586.21,207.97c0,7.75-6.28,14.03-14.03,14.03c-7.75,0-14.03-6.28-14.03-14.03s14.29-57.97,14.29-57.97
	S1586.21,200.22,1586.21,207.97z"/>
<path class="st1" d="M1686.21,86.97c0,7.75-6.28,14.03-14.03,14.03c-7.75,0-14.03-6.28-14.03-14.03S1672.45,29,1672.45,29
	S1686.21,79.22,1686.21,86.97z"/>
</svg>
